<svg width="20" height="21" viewBox="0 0 20 21" fill="none" xmlns="http://www.w3.org/2000/svg">
<g filter="url(#filter0_d)">
<path d="M9 16L8 7H9V16Z" fill="#3C3C3C"/>
<path d="M9 16L8 7H9V16Z" stroke="#3C3C3C"/>
</g>
<g filter="url(#filter1_d)">
<ellipse cx="8" cy="7.5" rx="6" ry="3.5" fill="#707070"/>
<path d="M13.5 7.5C13.5 8.21484 12.9996 8.95444 11.9907 9.54298C10.9941 10.1244 9.58424 10.5 8 10.5C6.41576 10.5 5.00595 10.1244 4.00929 9.54298C3.00037 8.95444 2.5 8.21484 2.5 7.5C2.5 6.78516 3.00037 6.04556 4.00929 5.45702C5.00595 4.87563 6.41576 4.5 8 4.5C9.58424 4.5 10.9941 4.87563 11.9907 5.45702C12.9996 6.04556 13.5 6.78516 13.5 7.5Z" stroke="#3C3C3C"/>
</g>
<defs>
<filter id="filter0_d" x="5.44135" y="2.5" width="10.0586" height="17.5552" filterUnits="userSpaceOnUse" color-interpolation-filters="sRGB">
<feFlood flood-opacity="0" result="BackgroundImageFix"/>
<feColorMatrix in="SourceAlpha" type="matrix" values="0 0 0 0 0 0 0 0 0 0 0 0 0 0 0 0 0 0 127 0"/>
<feOffset dx="2"/>
<feGaussianBlur stdDeviation="2"/>
<feColorMatrix type="matrix" values="0 0 0 0 0 0 0 0 0 0 0 0 0 0 0 0 0 0 0.3 0"/>
<feBlend mode="normal" in2="BackgroundImageFix" result="effect1_dropShadow"/>
<feBlend mode="normal" in="SourceGraphic" in2="effect1_dropShadow" result="shape"/>
</filter>
<filter id="filter1_d" x="0" y="0" width="20" height="15" filterUnits="userSpaceOnUse" color-interpolation-filters="sRGB">
<feFlood flood-opacity="0" result="BackgroundImageFix"/>
<feColorMatrix in="SourceAlpha" type="matrix" values="0 0 0 0 0 0 0 0 0 0 0 0 0 0 0 0 0 0 127 0"/>
<feOffset dx="2"/>
<feGaussianBlur stdDeviation="2"/>
<feColorMatrix type="matrix" values="0 0 0 0 0 0 0 0 0 0 0 0 0 0 0 0 0 0 0.3 0"/>
<feBlend mode="normal" in2="BackgroundImageFix" result="effect1_dropShadow"/>
<feBlend mode="normal" in="SourceGraphic" in2="effect1_dropShadow" result="shape"/>
</filter>
</defs>
</svg>
