<svg width="70" height="64" viewBox="0 0 70 64" fill="none"
  xmlns="http://www.w3.org/2000/svg">
  <g filter="url(#filter0_d)">
    <path d="M7.17083 19.5121L65.7191 2.37493C66.3593 2.18754 67 2.66759 67 3.33466V15.1638C67 15.6079 66.7071 15.9988 66.2809 16.1235L8.67847 32.9839C7.70459 33.2689 6.97439 32.0898 7.66356 31.345L12.1633 26.4819C12.5713 26.041 12.5012 25.3425 12.0139 24.9914L6.86718 21.2832C6.19178 20.7966 6.3719 19.746 7.17083 19.5121Z" fill="#F2E5AE" stroke="black" stroke-width="2"/>
    <path d="M20.5378 26.1053L18.4909 19.0597L21.5856 18.1606C22.2973 17.9538 22.9215 18.0037 23.458 18.3102C23.9935 18.6132 24.3516 19.076 24.5325 19.6983C24.7133 20.3207 24.6576 20.9055 24.3654 21.4528C24.0757 21.9956 23.5766 22.3699 22.8683 22.5757L21.0114 23.1152L21.7757 25.7457L20.5378 26.1053ZM20.6953 22.0269L22.387 21.5354C22.7378 21.4335 22.9949 21.2469 23.1585 20.9756C23.3255 20.7034 23.3605 20.4005 23.2636 20.067C23.1667 19.7334 22.9748 19.4965 22.688 19.3561C22.4045 19.2147 22.0874 19.195 21.7367 19.2969L20.0449 19.7884L20.6953 22.0269ZM27.4926 24.0847L25.4457 17.0391L26.6836 16.6795L28.4143 22.6368L31.5193 21.7347L31.8355 22.823L27.4926 24.0847ZM33.4778 22.3459L31.4308 15.3003L36.2585 13.8977L36.5747 14.986L32.9849 16.029L33.5153 17.8548L37.033 16.8329L37.3492 17.9212L33.8315 18.9431L34.3995 20.8979L37.9893 19.855L38.3055 20.9433L33.4778 22.3459ZM39.3649 20.6355L40.0877 12.7852L41.6299 12.3372L46.4414 18.5796L45.0385 18.9872L44.125 17.7872L40.8962 18.7252L40.7678 20.2279L39.3649 20.6355ZM40.9256 17.5365L43.4632 16.7993L41.2189 13.8102L40.9256 17.5365ZM46.8919 17.3692L47.3021 16.2209C47.6533 16.4284 48.0461 16.5678 48.4808 16.6392C48.9154 16.7105 49.3614 16.6798 49.8187 16.5469C50.2898 16.41 50.6147 16.2131 50.7936 15.956C50.9749 15.6945 51.0276 15.4331 50.9517 15.1718C50.9058 15.0136 50.8177 14.8901 50.6874 14.8011C50.5606 14.7112 50.4076 14.6531 50.2285 14.6268C50.0483 14.5971 49.8466 14.583 49.6233 14.5845C49.4034 14.585 49.1721 14.5907 48.9291 14.6016C48.6852 14.6091 48.4386 14.6136 48.1892 14.6152C47.9423 14.6124 47.7007 14.5894 47.4644 14.5462C47.2305 14.4985 47.0145 14.4289 46.8164 14.3373C46.6173 14.2423 46.4381 14.1004 46.2789 13.9118C46.1231 13.7221 46.0048 13.488 45.9238 13.2095C45.753 12.6215 45.8479 12.0626 46.2086 11.5327C46.5726 11.0019 47.1346 10.6261 47.8946 10.4053C48.9811 10.0896 49.9563 10.1605 50.8201 10.618L50.3802 11.7414C50.0385 11.5536 49.6694 11.4445 49.2728 11.4143C48.8787 11.3797 48.4908 11.4178 48.1091 11.5287C47.748 11.6336 47.4809 11.7988 47.3078 12.0244C47.1372 12.2455 47.0903 12.4884 47.1672 12.7532C47.2072 12.8907 47.289 12.9993 47.4129 13.0789C47.5357 13.1551 47.6861 13.2046 47.8643 13.2274C48.0415 13.2468 48.2417 13.2558 48.465 13.2543C48.6873 13.2494 48.9204 13.2432 49.1643 13.2357C49.4082 13.2282 49.6524 13.2281 49.8969 13.2354C50.1439 13.2382 50.3865 13.2647 50.6247 13.3148C50.863 13.3649 51.0822 13.4391 51.2824 13.5376C51.4825 13.6361 51.6614 13.7836 51.8192 13.9801C51.976 14.1732 52.0953 14.4107 52.1773 14.6927C52.2642 14.9918 52.2901 15.2863 52.255 15.5762C52.2233 15.8651 52.1286 16.1424 51.9709 16.4082C51.8167 16.673 51.5777 16.9158 51.2541 17.1366C50.9329 17.353 50.5419 17.5281 50.0811 17.662C48.8742 18.0126 47.8111 17.9151 46.8919 17.3692ZM54.435 16.2572L52.3881 9.21164L57.2158 7.80906L57.532 8.89736L53.9422 9.9403L54.4726 11.7662L57.9903 10.7442L58.3064 11.8325L54.7888 12.8545L55.3567 14.8093L58.9466 13.7663L59.2628 14.8546L54.435 16.2572Z" fill="black"/>
  </g>
  <g filter="url(#filter1_d)">
    <path d="M62.8292 42.4879L4.28092 59.6251C3.64071 59.8125 3 59.3324 3 58.6653V46.8362C3 46.3921 3.29288 46.0012 3.71908 45.8765L61.3215 29.0161C62.2954 28.7311 63.0256 29.9102 62.3364 30.655L57.8367 35.5181C57.4287 35.959 57.4988 36.6575 57.9861 37.0086L63.1328 40.7168C63.8082 41.2034 63.6281 42.254 62.8292 42.4879Z" fill="#F2E5AE" stroke="black" stroke-width="2"/>
    <path d="M15.3654 52.834L13.3184 45.7884L14.5563 45.4287L15.394 48.312L19.0612 47.2465L18.2235 44.3633L19.4563 44.0052L21.5032 51.0508L20.2705 51.4089L19.3774 48.3348L15.7102 49.4003L16.6033 52.4743L15.3654 52.834ZM23.1899 48.7821C22.7254 48.313 22.3923 47.7311 22.1905 47.0365C21.9887 46.3419 21.9587 45.6739 22.1005 45.0324C22.2447 44.3864 22.5447 43.8276 23.0005 43.3558C23.4597 42.8831 24.0367 42.5458 24.7313 42.344C25.2505 42.1931 25.7606 42.1456 26.2615 42.2014C26.7649 42.2528 27.22 42.3947 27.6268 42.627C28.0361 42.8549 28.3956 43.168 28.7052 43.5665C29.0149 43.9651 29.2452 44.4239 29.396 44.9431C29.5469 45.4624 29.5983 45.9732 29.5504 46.4756C29.5024 46.978 29.3672 47.4367 29.1448 47.8519C28.9248 48.2626 28.6166 48.6262 28.22 48.9427C27.826 49.2548 27.3693 49.4863 26.8501 49.6372C26.1555 49.839 25.4877 49.8633 24.8466 49.7103C24.209 49.5562 23.6567 49.2468 23.1899 48.7821ZM23.4593 46.6679C23.6731 47.4037 24.0631 47.9504 24.6294 48.308C25.1956 48.6655 25.8295 48.7423 26.5309 48.5385C27.229 48.3357 27.723 47.9312 28.0129 47.3249C28.3029 46.7187 28.341 46.0476 28.1272 45.3118C27.9124 44.5725 27.5207 44.0263 26.952 43.6732C26.3823 43.3167 25.7485 43.2398 25.0504 43.4426C24.349 43.6464 23.8545 44.0492 23.567 44.6511C23.2794 45.2529 23.2436 45.9252 23.4593 46.6679ZM32.1324 47.9627L30.0855 40.9171L31.3234 40.5574L33.0541 46.5147L36.1591 45.6126L36.4753 46.7009L32.1324 47.9627ZM38.1176 46.2238L36.0706 39.1782L38.6908 38.417C39.4129 38.2072 40.0977 38.1705 40.7451 38.3068C41.3925 38.4431 41.9471 38.735 42.409 39.1825C42.8733 39.6256 43.2048 40.1893 43.4036 40.8735C43.6024 41.5578 43.6245 42.2114 43.4699 42.8343C43.3187 43.4562 43.0063 43.9981 42.5328 44.4601C42.0582 44.9186 41.4599 45.2528 40.7378 45.4626L38.1176 46.2238ZM39.0393 44.7759L40.4216 44.3743C40.9167 44.2304 41.318 43.9945 41.6254 43.6666C41.9319 43.3352 42.125 42.9603 42.2048 42.5418C42.288 42.1224 42.2647 41.6892 42.1348 41.2422C41.929 40.5338 41.5465 40.0129 40.9872 39.6795C40.427 39.3426 39.7669 39.2845 39.007 39.5053L37.6247 39.9069L39.0393 44.7759ZM45.4945 43.4039C45.4366 43.2044 45.4589 43.0115 45.5613 42.8251C45.6662 42.6343 45.8201 42.5094 46.023 42.4505C46.2224 42.3926 46.4153 42.4148 46.6017 42.5173C46.7915 42.6187 46.9159 42.7709 46.9748 42.9738C47.0338 43.1767 47.0108 43.3735 46.9059 43.5643C46.8034 43.7507 46.6525 43.8729 46.4531 43.9308C46.2536 43.9887 46.059 43.967 45.8692 43.8655C45.6784 43.7606 45.5535 43.6067 45.4945 43.4039ZM48.6119 42.4982C48.554 42.2987 48.5763 42.1058 48.6787 41.9194C48.7836 41.7286 48.9375 41.6038 49.1404 41.5448C49.3398 41.4869 49.5327 41.5091 49.7191 41.6116C49.9089 41.7131 50.0333 41.8652 50.0922 42.0681C50.1512 42.271 50.1282 42.4678 50.0233 42.6586C49.9208 42.845 49.7699 42.9672 49.5704 43.0251C49.371 43.0831 49.1764 43.0613 48.9866 42.9598C48.7958 42.8549 48.6709 42.701 48.6119 42.4982ZM51.7293 41.5925C51.6714 41.393 51.6936 41.2001 51.7961 41.0138C51.901 40.8229 52.0549 40.6981 52.2578 40.6391C52.4572 40.5812 52.6501 40.6034 52.8365 40.7059C53.0263 40.8074 53.1507 40.9595 53.2096 41.1624C53.2686 41.3653 53.2456 41.5621 53.1407 41.7529C53.0382 41.9393 52.8873 42.0615 52.6878 42.1194C52.4884 42.1774 52.2938 42.1556 52.104 42.0541C51.9131 41.9492 51.7883 41.7954 51.7293 41.5925Z" fill="black"/>
  </g>
  <defs>
    <filter id="filter0_d" x="3.45099" y="0.333405" width="66.549" height="36.6973" filterUnits="userSpaceOnUse" color-interpolation-filters="sRGB">
      <feFlood flood-opacity="0" result="BackgroundImageFix"/>
      <feColorMatrix in="SourceAlpha" type="matrix" values="0 0 0 0 0 0 0 0 0 0 0 0 0 0 0 0 0 0 127 0"/>
      <feOffset dy="1"/>
      <feGaussianBlur stdDeviation="1"/>
      <feColorMatrix type="matrix" values="0 0 0 0 0 0 0 0 0 0 0 0 0 0 0 0 0 0 0.75 0"/>
      <feBlend mode="normal" in2="BackgroundImageFix" result="effect1_dropShadow"/>
      <feBlend mode="normal" in="SourceGraphic" in2="effect1_dropShadow" result="shape"/>
    </filter>
    <filter id="filter1_d" x="0" y="26.9693" width="66.549" height="36.6973" filterUnits="userSpaceOnUse" color-interpolation-filters="sRGB">
      <feFlood flood-opacity="0" result="BackgroundImageFix"/>
      <feColorMatrix in="SourceAlpha" type="matrix" values="0 0 0 0 0 0 0 0 0 0 0 0 0 0 0 0 0 0 127 0"/>
      <feOffset dy="1"/>
      <feGaussianBlur stdDeviation="1"/>
      <feColorMatrix type="matrix" values="0 0 0 0 0 0 0 0 0 0 0 0 0 0 0 0 0 0 0.75 0"/>
      <feBlend mode="normal" in2="BackgroundImageFix" result="effect1_dropShadow"/>
      <feBlend mode="normal" in="SourceGraphic" in2="effect1_dropShadow" result="shape"/>
    </filter>
  </defs>
</svg>
